<svg width="328" height="113" viewBox="0 0 328 113" fill="none" xmlns="http://www.w3.org/2000/svg">
<path d="M26.6235 53.247C26.6235 51.409 28.1135 49.9191 29.9515 49.9191C31.7894 49.9191 33.2794 51.409 33.2794 53.247V112.041H26.6235V53.247Z" fill="#00D09E"/>
<path d="M39.9355 21.077C39.9355 19.239 41.4255 17.749 43.2635 17.749C45.1014 17.749 46.5914 19.239 46.5914 21.077V112.041H39.9355V21.077Z" fill="#0068FF"/>
<path d="M72.1055 96.5102C72.1055 94.6722 73.5954 93.1823 75.4334 93.1823C77.2714 93.1823 78.7613 94.6722 78.7613 96.5102V112.041H72.1055V96.5102Z" fill="#00D09E"/>
<path d="M85.417 63.2308C85.417 61.3928 86.907 59.9028 88.7449 59.9028C90.5829 59.9028 92.0729 61.3928 92.0729 63.2308V112.04H85.417V63.2308Z" fill="#0068FF"/>
<path d="M117.587 23.2956C117.587 21.4576 119.077 19.9677 120.915 19.9677C122.753 19.9677 124.243 21.4576 124.243 23.2956V112.041H117.587V23.2956Z" fill="#00D09E"/>
<path d="M130.899 59.9029C130.899 58.0649 132.389 56.575 134.227 56.575C136.065 56.575 137.555 58.0649 137.555 59.9029V112.041H130.899V59.9029Z" fill="#0068FF"/>
<path d="M163.069 104.275C163.069 102.437 164.559 100.947 166.397 100.947C168.235 100.947 169.725 102.437 169.725 104.275V112.041H163.069V104.275Z" fill="#00D09E"/>
<path d="M176.38 45.4817C176.38 43.6438 177.87 42.1538 179.708 42.1538C181.546 42.1538 183.036 43.6438 183.036 45.4817V112.04H176.38V45.4817Z" fill="#0068FF"/>
<path d="M208.551 3.32793C208.551 1.48997 210.041 0 211.879 0C213.717 0 215.207 1.48997 215.207 3.32793V112.04H208.551V3.32793Z" fill="#00D09E"/>
<path d="M221.862 13.3117C221.862 11.4737 223.352 9.98376 225.19 9.98376C227.028 9.98376 228.518 11.4737 228.518 13.3117V112.04H221.862V13.3117Z" fill="#0068FF"/>
<path d="M254.032 82.089C254.032 80.2511 255.522 78.7611 257.36 78.7611C259.198 78.7611 260.688 80.2511 260.688 82.089V112.04H254.032V82.089Z" fill="#00D09E"/>
<path d="M267.344 106.494C267.344 104.656 268.834 103.166 270.672 103.166C272.51 103.166 274 104.656 274 106.494V112.041H267.344V106.494Z" fill="#0068FF"/>
<path d="M299.514 79.8703C299.514 78.0323 301.004 76.5424 302.842 76.5424C304.68 76.5424 306.17 78.0323 306.17 79.8703V112.04H299.514V79.8703Z" fill="#00D09E"/>
<path d="M312.826 34.3886C312.826 32.5506 314.316 31.0607 316.154 31.0607C317.992 31.0607 319.482 32.5506 319.482 34.3886V112.04H312.826V34.3886Z" fill="#0068FF"/>
<path d="M0 112.04L327.247 112.04" stroke="#0E3E3E" stroke-width="1.10931"/>
</svg>
