<svg width="320" height="91" viewBox="0 0 320 91" fill="none" xmlns="http://www.w3.org/2000/svg">
<path d="M15.6926 31.1345C22.3628 8.1336 41.0894 0.706237 49.3314 0.0832959C13.22 -1.75678 1.22116 27.3489 0.0231976 41.9162C-1.01184 82.1678 32.8474 91.2722 49.9064 90.7931C26.2155 85.8479 16.2676 65.7317 14.255 56.2917C0.454465 45.0213 9.46315 34.8242 15.6926 31.1345Z" fill="#9CC35B"/>
<path d="M16.6241 34.573C18.4485 33.6538 20.4798 33.24 22.4981 33.3769C24.5165 33.5138 26.4456 34.1963 28.0762 35.3499L27.91 35.5846C27.9085 35.5835 27.9068 35.5824 27.9052 35.5813L27.7277 35.5332C27.5341 35.5026 27.4282 35.2637 27.3673 35.2258C25.9021 34.3203 24.2254 33.7824 22.4787 33.6639C20.5123 33.5305 21.3297 36.7677 19.5508 37.664C18.4007 38.3827 18.655 38.5498 17.5781 40.2171C16.5014 41.8844 16.4358 42.7776 16.371 44.7336C16.6585 46.8899 17.1493 47.867 18.1132 49.5483C19.0771 51.2295 20.6933 51.7161 22.4087 52.6402C24.1243 53.5643 25.8589 53.5027 26.8652 53.3589C27.7277 53.3999 25.2713 54.4763 26.8147 53.5709C26.9879 53.5657 26.9574 53.3926 27.1303 53.3792L27.2326 53.3138L27.312 53.2621C27.3134 53.2611 27.315 53.2602 27.3165 53.2593L27.3956 53.3792L27.4748 53.4993C25.7687 54.6248 23.7955 55.274 21.7692 55.3769C19.7429 55.4797 17.7402 55.0324 15.9777 54.0831C14.2152 53.1336 12.76 51.7181 11.7692 49.9899C10.7785 48.2619 10.2899 46.2869 10.3564 44.2782C10.4229 42.2694 11.0422 40.3033 12.1469 38.5928C13.2515 36.8824 14.7997 35.4922 16.6241 34.573ZM21.9775 33.5207C23.1675 33.238 27.265 34.8289 27.3673 35.2258C27.5499 35.3387 27.7294 35.457 27.9052 35.5813L27.9047 35.5858C26.5301 35.3682 25.1245 35.4208 23.7821 35.7396C22.4398 36.0585 21.1923 36.636 20.1228 37.4321C19.0534 38.2282 18.1864 39.2244 17.5781 40.3533C16.97 41.482 16.6341 42.7185 16.5915 43.9803C16.5489 45.2421 16.8006 46.5025 17.3313 47.6772C17.8621 48.8521 18.6601 49.9153 19.6735 50.7949C20.6871 51.6746 21.8926 52.3503 23.2102 52.7752C24.5278 53.2002 25.9263 53.3642 27.3117 53.2567L27.312 53.2621C27.1487 53.3696 26.9828 53.4724 26.8147 53.5709C25.5634 53.6084 24.3109 53.4321 23.122 53.0487C21.7687 52.6122 18.8522 50.8146 17.8086 49.9088C16.7649 49.003 17.6179 49.0098 17.0694 47.7957C16.5209 46.5816 16.2602 45.2775 16.3043 43.9707C16.3484 42.664 16.6963 41.3843 17.3252 40.2171C17.954 39.0499 18.8493 38.0219 19.9512 37.2016C21.0531 36.3813 20.5983 33.8483 21.9775 33.5207Z" fill="#9CC35B"/>
<path d="M30.4762 43.1267C30.4762 44.397 29.4464 45.4268 28.1761 45.4268C26.9058 45.4268 25.876 44.397 25.876 43.1267C25.876 41.8564 26.9058 40.8266 28.1761 40.8266C29.4464 40.8266 30.4762 41.8564 30.4762 43.1267Z" fill="#9CC35B"/>
<path d="M128.229 52.0395H146.774V60.3773H156.406L162.875 52.7583H214.052" stroke="#9DBC58" stroke-width="1.43756"/>
<path d="M67.0421 39.0174L67.0421 24.7857H65.6046C64.7996 28.0058 63.4482 27.4691 62.8732 26.7982C59.8831 23.4631 54.6312 23.1085 52.3791 23.3481C41.0224 23.2043 36.9972 28.9546 36.5659 34.561C36.2209 39.0462 37.6681 42.3717 38.4348 43.4739C40.0778 45.2948 45.0806 49.3966 51.9478 51.2367C58.815 53.0767 61.6136 55.8369 62.1544 56.9869C64.4066 61.7308 65.8058 71.2187 53.3854 71.2187C40.9649 71.2187 37.8597 61.7308 37.8597 56.9869H36.5659V72.8H37.8597C37.9556 71.3145 39.0385 68.9186 42.6037 71.2187C46.1688 73.5188 51.2769 73.9021 53.3854 73.8063C71.096 72.4263 70.6839 59.9247 68.4797 53.887C66.2275 50.9639 66.1796 49.0804 51.9478 43.3928C44.5737 40.4458 42.6995 36.957 42.7474 34.561C42.3162 32.0213 43.6387 26.7407 52.3791 25.9357C61.1194 25.1307 64.6462 34.3214 65.3171 39.0174H67.0421Z" fill="#21314E"/>
<path d="M84.5803 66.3311V30.3922C84.5803 27.287 82.2802 26.4149 81.1302 26.367H78.3988V24.6419H116.494V37.4362H114.769C114.769 28.8108 108.252 26.942 104.994 27.0858H92.0556V46.7803H100.25C106.46 46.7803 107.725 42.1801 107.581 39.88H109.163V56.4119H107.581C107.581 50.6617 102.694 49.4158 100.25 49.5116H92.0556V69.9249C92.1035 69.7333 94.557 69.4649 103.987 69.9249C113.418 70.385 116.159 62.4497 116.35 58.4245H117.357V72.225H78.8301V71.2187C83.7753 71.2187 84.7241 67.9603 84.5803 66.3311Z" fill="#21314E"/>
<path d="M127.132 26.367V24.7857H146.683V26.367H144.526C140.731 26.367 139.878 28.9546 139.926 30.2484V48.7929H133.601C133.649 43.426 133.745 32.0885 133.745 29.6734C133.745 27.2583 131.253 26.4628 130.007 26.367H127.132Z" fill="#21314E"/>
<path d="M133.745 66.3311V56.6994H140.645V69.9249H154.589C162.065 69.9249 164.7 62.258 165.083 58.4245H166.809L165.083 72.0813H127.132V71.075C132.652 71.075 133.841 67.9124 133.745 66.3311Z" fill="#21314E"/>
<path d="M158.471 48.2178H204.185V39.305H203.035C203.035 45.1702 200.543 46.5407 199.297 46.4928H158.183L151.714 52.818V55.4056H153.296V53.9681L158.471 48.2178Z" fill="#21314E"/>
<path d="M186.791 56.5557H180.178V65.0373C180.178 69.9824 176.057 71.1229 173.996 71.075V72.225H212.523L213.817 58.4245H211.948C209.267 68.4299 206.231 70.1645 205.048 69.7812H186.934L186.791 56.5557Z" fill="#21314E"/>
<path d="M229.198 64.8935V31.2547C229.198 26.9995 224.79 26.3191 222.586 26.5107V24.6419H235.236L262.981 60.8683H263.7V31.8297C263.7 27.5745 259.387 26.5107 257.231 26.5107V24.7857H272.613V26.5107C267.322 26.5107 266.096 30.0567 266.144 31.8297V72.8001H263.412L232.217 32.4047V64.8935C232.217 69.7237 236.53 71.0271 238.686 71.075V72.225H222.729V70.7875C228.135 70.7875 229.294 66.8582 229.198 64.8935Z" fill="#21314E"/>
<path d="M174.807 26.4511V24.8698H211.608C211.608 28.3199 211.991 34.8369 212.183 37.6641H210.602C210.602 29.2687 205.427 27.1699 202.839 27.1699H187.026V43.2705H180.413V30.7638C180.413 27.0836 176.675 26.3553 174.807 26.4511Z" fill="#21314E"/>
<path d="M280.898 26.4511V24.8698H317.843L318.85 37.3766H317.125C314.937 29.2112 309.792 27.1699 307.493 27.1699H293.836V47.0082H303.324C308.844 47.0082 310.033 42.3122 309.937 39.9642H311.087V55.921H309.937C309.937 50.7458 305.528 49.452 303.324 49.452H293.836V70.0091H306.774C315.86 70.0091 318.227 62.6296 318.275 58.9399H320C320 66.1852 319.233 70.8716 318.85 72.3092H280.898V71.1591C286.303 70.9291 287.271 66.5589 287.08 64.4026V41.833V32.0576C287.08 26.9974 282.959 26.2115 280.898 26.4511Z" fill="#21314E"/>
<circle cx="215.921" cy="52.6146" r="4.02516" fill="#9DBC58"/>
<circle cx="125.641" cy="52.6146" r="4.02516" fill="#9DBC58"/>
</svg>
